<svg width="32" height="32" viewBox="0 0 32 32" fill="none" xmlns="http://www.w3.org/2000/svg">
<path fill-rule="evenodd" clip-rule="evenodd" d="M16 31C24.2843 31 31 24.2843 31 16C31 7.71573 24.2843 1 16 1C7.71573 1 1 7.71573 1 16C1 24.2843 7.71573 31 16 31ZM16 32C24.8366 32 32 24.8366 32 16C32 7.16344 24.8366 0 16 0C7.16344 0 0 7.16344 0 16C0 24.8366 7.16344 32 16 32Z" fill="#0243A6"/>
<path fill-rule="evenodd" clip-rule="evenodd" d="M7 10.5C7 9.67157 7.67157 9 8.5 9H23.5C24.3284 9 25 9.67157 25 10.5V17.5C25 18.3284 24.3284 19 23.5 19H22.5V17C22.5 16.1716 21.8284 15.5 21 15.5H11C10.1716 15.5 9.5 16.1716 9.5 17V19H8.5C7.67157 19 7 18.3284 7 17.5V10.5ZM10.5 11.5V13.5H9.5V11.5H10.5ZM12.5 11.5V13.5H11.5V11.5H12.5Z" fill="#0243A6"/>
<path d="M21.5 17V19H10.5V17C10.5 16.7239 10.7239 16.5 11 16.5H21C21.2761 16.5 21.5 16.7239 21.5 17Z" fill="#0243A6"/>
<path fill-rule="evenodd" clip-rule="evenodd" d="M17 20V24H16V20H17Z" fill="#0243A6"/>
<path fill-rule="evenodd" clip-rule="evenodd" d="M21.4653 19.9387L22.5006 23.8024L21.5347 24.0613L20.4994 20.1976L21.4653 19.9387Z" fill="#0243A6"/>
<path fill-rule="evenodd" clip-rule="evenodd" d="M10.4994 23.8024L11.5347 19.9387L12.5006 20.1976L11.4653 24.0613L10.4994 23.8024Z" fill="#0243A6"/>
</svg>
