<svg width="32" height="32" viewBox="0 0 32 32" fill="none" xmlns="http://www.w3.org/2000/svg">
<path fill-rule="evenodd" clip-rule="evenodd" d="M16 31C24.2843 31 31 24.2843 31 16C31 7.71573 24.2843 1 16 1C7.71573 1 1 7.71573 1 16C1 24.2843 7.71573 31 16 31ZM16 32C24.8366 32 32 24.8366 32 16C32 7.16344 24.8366 0 16 0C7.16344 0 0 7.16344 0 16C0 24.8366 7.16344 32 16 32Z" fill="#0243A6"/>
<path d="M8.55569 9.95C7.81894 9.95 7.32199 10.7568 7.6117 11.4825L11.5359 21.3132C11.6614 21.6277 11.9079 21.8477 12.1926 21.9368C12.3295 22.0093 12.4838 22.05 12.6468 22.05L22.9724 22.05C23.6892 22.05 24.1854 21.2829 23.9337 20.5638L23.1637 18.3638C23.0134 17.9345 22.6303 17.65 22.2023 17.65L14.0187 17.65L11.2975 10.6282C11.1384 10.2176 10.7642 9.95 10.3493 9.95H8.55569Z" fill="#0243A6"/>
<path d="M14.1869 27C13.9034 27 13.6736 26.7538 13.6736 26.45V23.7C13.6736 23.3962 13.9034 23.15 14.1869 23.15H21.8872C22.1707 23.15 22.4005 23.3962 22.4005 23.7V26.45C22.4005 26.7538 22.1707 27 21.8872 27H14.1869Z" fill="#0243A6"/>
<path d="M11.1068 7.75C11.1068 8.35751 10.6471 8.85 10.0801 8.85L8.0267 8.85C7.45967 8.85 7 8.35751 7 7.75L7 6.1C7 5.49249 7.45967 5 8.0267 5L10.0801 5C10.6471 5 11.1068 5.49249 11.1068 6.1L11.1068 7.75Z" fill="#0243A6"/>
</svg>
