<svg width="32" height="32" viewBox="0 0 32 32" fill="none" xmlns="http://www.w3.org/2000/svg">
<path fill-rule="evenodd" clip-rule="evenodd" d="M16 31C24.2843 31 31 24.2843 31 16C31 7.71573 24.2843 1 16 1C7.71573 1 1 7.71573 1 16C1 24.2843 7.71573 31 16 31ZM16 32C24.8366 32 32 24.8366 32 16C32 7.16344 24.8366 0 16 0C7.16344 0 0 7.16344 0 16C0 24.8366 7.16344 32 16 32Z" fill="#0243A6"/>
<path d="M7 11C7 10.4477 7.44772 10 8 10H14C14.5523 10 15 10.4477 15 11V19C15 19.5523 14.5523 20 14 20H8C7.44772 20 7 19.5523 7 19V11Z" fill="#0243A6"/>
<path d="M14 9H8V7.6C8 7.26863 8.26863 7 8.6 7H13.4C13.7314 7 14 7.26863 14 7.6V9Z" fill="#0243A6"/>
<path fill-rule="evenodd" clip-rule="evenodd" d="M21 16C19.8954 16 19 16.8954 19 18V21.5C19 23.9853 16.9853 26 14.5 26C12.0147 26 10 23.9853 10 21.5V21H12V21.5C12 22.8807 13.1193 24 14.5 24C15.8807 24 17 22.8807 17 21.5V18C17 15.7909 18.7909 14 21 14C23.2091 14 25 15.7909 25 18V23H23V18C23 16.8954 22.1046 16 21 16Z" fill="#0243A6"/>
</svg>
