<svg width="32" height="32" viewBox="0 0 32 32" fill="none" xmlns="http://www.w3.org/2000/svg">
<path fill-rule="evenodd" clip-rule="evenodd" d="M16 31C24.2843 31 31 24.2843 31 16C31 7.71573 24.2843 1 16 1C7.71573 1 1 7.71573 1 16C1 24.2843 7.71573 31 16 31ZM16 32C24.8366 32 32 24.8366 32 16C32 7.16344 24.8366 0 16 0C7.16344 0 0 7.16344 0 16C0 24.8366 7.16344 32 16 32Z" fill="#0243A6"/>
<path d="M24.9906 14.9721C24.861 15.1056 24.6554 15.1052 24.5225 14.9754C22.3021 12.8073 19.3019 11.4772 15.9999 11.4772C12.698 11.4772 9.6978 12.8073 7.47745 14.9753C7.34453 15.1051 7.13898 15.1055 7.00932 14.972L5.10156 13.0082C4.96582 12.8685 4.96559 12.6367 5.10421 12.5003C6.5142 11.1121 8.16307 10.0046 9.96751 9.2352C11.8801 8.41972 13.9299 8 16 8C18.0701 8 20.12 8.41972 22.0325 9.2352C23.768 9.97517 25.3595 11.0279 26.7331 12.3423C26.7877 12.3945 26.8419 12.4472 26.8958 12.5003C27.0344 12.6368 27.0342 12.8685 26.8984 13.0083L24.9906 14.9721Z" fill="#0243A6"/>
<path d="M9.08245 17.1061C8.94672 16.9664 8.94635 16.7345 9.08652 16.5998C10.8971 14.86 13.3277 13.7953 15.9999 13.7953C18.6722 13.7953 21.1029 14.8601 22.9134 16.5999C23.0536 16.7346 23.0532 16.9665 22.9175 17.1062L21.0097 19.0701C20.88 19.2035 20.6747 19.2028 20.5392 19.0761C19.3398 17.9554 17.7473 17.2725 15.9999 17.2725C14.2526 17.2725 12.6602 17.9554 11.4608 19.076C11.3252 19.2027 11.1199 19.2034 10.9903 19.07L9.08245 17.1061Z" fill="#0243A6"/>
<path d="M18.9366 21.2041C19.0723 21.0644 19.073 20.8318 18.9276 20.7036C18.1402 20.0098 17.1176 19.5907 15.9999 19.5907C14.8823 19.5907 13.8597 20.0097 13.0724 20.7035C12.927 20.8317 12.9277 21.0643 13.0634 21.204C13.4384 21.5901 15.1937 23.2425 15.7963 23.8087C15.9115 23.917 16.0886 23.917 16.2039 23.8088C16.7986 23.2512 18.5148 21.6383 18.9366 21.2041Z" fill="#0243A6"/>
</svg>
