<svg width="12" height="20" viewBox="0 0 12 20" fill="none" xmlns="http://www.w3.org/2000/svg">
<path d="M6.07005 0.766602C7.32191 0.766602 7.72518 1.67369 8.05661 2.56538C8.20027 2.95428 11.4674 11.8928 11.5546 12.1657C11.5834 12.2375 11.569 12.3668 11.4541 12.4099C11.3392 12.453 9.64093 13.1149 9.55371 13.1436C9.45315 13.1723 9.35259 13.1292 9.32386 13.0287C9.29513 12.9425 8.59019 10.9846 8.50297 10.7692C8.27312 10.7692 3.89674 10.7692 3.66689 10.7692C3.5807 10.9846 2.87473 12.9425 2.846 13.0287C2.81727 13.1149 2.71671 13.1723 2.61615 13.1436C2.51559 13.1005 0.817372 12.4387 0.715787 12.4099C0.615228 12.3668 0.572131 12.2663 0.615228 12.1657C0.730153 11.8343 3.9542 3.02611 4.11325 2.56538C4.40056 1.68805 4.81819 0.766602 6.07005 0.766602ZM0.32689 16.773C0.22633 16.773 0.140137 16.8592 0.140137 16.9597V19.0468C0.140137 19.1474 0.22633 19.2336 0.32689 19.2336H11.8132C11.9138 19.2336 12 19.1474 12 19.0468V16.9597C12 16.8592 11.9138 16.773 11.8132 16.773H0.32689ZM6.05569 3.68897L4.41493 8.59688H7.71081L6.07005 3.68897H6.05569Z" fill="current"/>
</svg>
