<svg width="40" height="40" viewBox="0 0 40 40" fill="none" xmlns="http://www.w3.org/2000/svg">
<g clip-path="url(#clip0_3293_300)">
<path fill-rule="evenodd" clip-rule="evenodd" d="M6.03047 9C4.59529 9 3.62724 10.4669 4.19158 11.7864L11.8359 29.6604C12.0804 30.2323 12.5604 30.6322 13.1151 30.7942C13.3819 30.926 13.6823 31.0001 14 31.0001L34.114 31.0001C35.5104 31.0001 36.477 29.6053 35.9866 28.2978L34.4866 24.2978C34.1939 23.5172 33.4477 23.0001 32.614 23.0001L16.6723 23.0001L11.3714 10.2331C11.0615 9.48656 10.3326 9 9.52433 9H6.03047Z" fill="#005EE4"/>
<rect x="15.5" y="40.5" width="8" height="18" rx="1.5" transform="rotate(-90 15.5 40.5)" fill="#005EE4" stroke="white"/>
<rect x="11" y="7" width="8" height="7" rx="2" transform="rotate(180 11 7)" fill="#005EE4"/>
<path fill-rule="evenodd" clip-rule="evenodd" d="M27 17C31.4183 17 35 13.4183 35 9C35 4.58172 31.4183 1 27 1C22.5817 1 19 4.58172 19 9C19 13.4183 22.5817 17 27 17ZM31.0607 6.99644L29.9964 5.93935L25.9904 9.97234L23.9286 8.17103L22.9417 9.30065L25.5333 11.5648C25.8312 11.8251 26.2801 11.8092 26.5589 11.5285L31.0607 6.99644Z" fill="#005EE4"/>
</g>
<defs>
<clipPath id="clip0_3293_300">
<rect width="40" height="40" fill="white"/>
</clipPath>
</defs>
</svg>
