<svg width="224" height="32" viewBox="0 0 224 32" fill="none" xmlns="http://www.w3.org/2000/svg">
<path fillRule="evenodd" clipRule="evenodd" d="M0.000227054 31.6894C0.361537 30.4361 0.713084 29.18 1.07114 27.9274C1.42989 26.6727 1.78795 25.418 2.14345 24.1633H9.23945C9.11925 24.5912 8.99835 25.0178 8.87814 25.4443H3.39222C3.23342 26.0053 3.06881 26.566 2.90374 27.127H6.11274C5.98602 27.5537 5.86582 27.9803 5.74561 28.4068H2.54243C2.36503 29.0293 2.18762 29.6517 2.00998 30.2732H7.56543C7.43174 30.7462 7.29851 31.2177 7.159 31.6894H0H0.000227054ZM13.9007 24.1633C13.6089 25.1819 13.3178 26.1998 13.0258 27.2184C12.734 28.237 12.4422 29.2548 12.1502 30.2735H16.7484C17.0397 29.2548 17.3322 28.237 17.6233 27.2184C17.9151 26.2005 18.2071 25.1819 18.4989 24.1633H20.1092C19.8367 25.1216 19.5577 26.0806 19.2852 27.0377C19.012 27.9956 18.7367 28.9558 18.4605 29.9115C18.2613 30.6007 18.0041 31.0689 17.6996 31.3157C17.3896 31.5669 16.9004 31.6894 16.2287 31.6894H11.853C11.1806 31.6894 10.7647 31.5638 10.5975 31.3157C10.4292 31.0658 10.4452 30.5993 10.6412 29.9115C10.9144 28.9544 11.1934 27.9956 11.4659 27.0377C11.7384 26.0806 12.0111 25.1216 12.2901 24.1633H13.9011H13.9007ZM28.5121 25.4663H24.8783C24.7767 25.8156 24.6754 26.166 24.5738 26.5139C24.4728 26.8624 24.3777 27.2124 24.2761 27.5609H27.9037C28.1827 27.5609 28.3845 27.5152 28.5123 27.4301C28.6442 27.3416 28.7386 27.1887 28.8041 26.9631C28.8911 26.6629 28.9757 26.36 29.0638 26.0569C29.1273 25.8388 29.1197 25.6866 29.038 25.5974C28.9616 25.5127 28.7848 25.4665 28.5121 25.4665V25.4663ZM21.4982 31.6894C21.8595 30.4361 22.2215 29.1814 22.5826 27.9274C22.9439 26.6741 23.3052 25.418 23.667 24.1633H29.5963C30.1478 24.1633 30.5098 24.2779 30.6937 24.5092C30.8769 24.74 30.8911 25.1123 30.7439 25.6223C30.5742 26.2122 30.4063 26.8043 30.2368 27.3916C30.0903 27.9001 29.8569 28.2693 29.5458 28.4994C29.2296 28.7329 28.7911 28.8491 28.2396 28.8491H27.3454C27.7381 29.3228 28.138 29.7962 28.5314 30.2691C28.9241 30.7428 29.324 31.2162 29.7174 31.6892H27.4019C27.072 31.2162 26.7488 30.7426 26.4191 30.2691C26.0892 29.7962 25.7595 29.3228 25.4298 28.8491H23.9018C23.7688 29.3228 23.6261 29.795 23.4898 30.2691C23.3536 30.7414 23.2166 31.2162 23.0836 31.6892H21.4984L21.4982 31.6894ZM33.782 25.9452C33.9813 25.2608 34.2319 24.7931 34.5432 24.541C34.8529 24.2896 35.3421 24.1633 36.0206 24.1633H41.1194C41.8039 24.1633 42.2277 24.2862 42.3877 24.541C42.5446 24.7896 42.5246 25.2587 42.324 25.9452C42.1317 26.6052 41.9411 27.2674 41.7474 27.9296C41.5544 28.5891 41.3656 29.251 41.1701 29.9117C40.9669 30.599 40.7162 31.0724 40.4154 31.316C40.1017 31.5705 39.6162 31.6896 38.9317 31.6896H33.8392C33.1603 31.6896 32.74 31.5679 32.5768 31.316C32.4175 31.0698 32.4284 30.5983 32.6281 29.9117C32.8204 29.2496 33.015 28.5903 33.2047 27.9296C33.3949 27.2688 33.5886 26.6074 33.782 25.9452ZM34.144 30.2735H39.4584C39.6923 29.4804 39.9238 28.6867 40.1552 27.8932C40.3868 27.1009 40.6123 26.305 40.8469 25.5108H35.5263C35.2914 26.305 35.0659 27.1007 34.8353 27.8932C34.6032 28.6869 34.3724 29.4804 34.1443 30.2735H34.144ZM51.0882 25.4663H47.4549C47.3598 25.7991 47.2582 26.133 47.1631 26.4643C47.0677 26.7964 46.9726 27.1298 46.8775 27.4619H50.5051C50.7841 27.4619 50.9859 27.4162 51.1138 27.3308C51.2456 27.2423 51.333 27.0868 51.3991 26.8638C51.4781 26.5947 51.5592 26.3275 51.6395 26.0569C51.705 25.8388 51.6985 25.6833 51.6209 25.5974C51.5404 25.5094 51.3611 25.4665 51.0877 25.4665L51.0882 25.4663ZM44.0557 31.6894C44.4235 30.4361 44.7848 29.1807 45.1524 27.9274C45.5202 26.6734 45.882 25.418 46.2498 24.1633H52.1793C52.7315 24.1633 53.0926 24.2779 53.2765 24.5092C53.4604 24.74 53.4718 25.1118 53.3209 25.6223C53.1556 26.1825 52.9989 26.7447 52.8331 27.3035C52.682 27.8121 52.4518 28.1812 52.1349 28.4121C51.818 28.6429 51.393 28.7566 50.8417 28.7566H46.4974C46.3514 29.246 46.2089 29.734 46.0661 30.2235C45.9241 30.7103 45.7806 31.2009 45.6411 31.6892H44.0559L44.0557 31.6894ZM54.031 31.6894C54.3988 30.4361 54.7671 29.1814 55.1349 27.9274C55.5025 26.6741 55.8638 25.418 56.2379 24.1633H63.3469C63.2202 24.5912 63.0937 25.0178 62.9666 25.4443H57.4741C57.316 26.0053 57.1514 26.566 56.9863 27.127H60.1888C60.0621 27.5537 59.9415 27.9803 59.8147 28.4068H56.6122C56.4283 29.0293 56.2447 29.6517 56.0607 30.2732H61.6159C61.4764 30.7462 61.3369 31.2177 61.204 31.6894H54.0312H54.031Z" fill="#E23F35"/>
<path fillRule="evenodd" clipRule="evenodd" d="M218.96 3.90712H205.973C205.532 5.50353 205.092 7.10016 204.673 8.69411H217.045C219.004 8.69411 220.202 9.07901 220.676 9.80855C221.17 10.5678 221.166 11.9419 220.611 13.9707C220.331 14.9939 220.055 16.0086 219.774 17.0291C219.218 19.0486 218.491 20.4245 217.595 21.1829C216.73 21.9156 215.306 22.2971 213.369 22.2971H201.086C199.126 22.2971 197.914 21.9263 197.431 21.1829C196.946 20.4353 196.963 19.0486 197.542 17.0291C197.6 16.8242 197.652 16.6234 197.718 16.4183C199.149 16.1023 200.601 15.7851 202.033 15.4667C201.812 16.3445 201.57 17.2232 201.328 18.1019H215.394C215.857 16.4067 216.319 14.7132 216.781 13.0188H204.366C202.45 13.0188 201.231 12.6511 200.756 11.9037C200.284 11.1628 200.323 9.77545 200.888 7.74405C201.115 6.92683 201.348 6.10268 201.57 5.28055C202.118 3.25182 202.842 1.86184 203.705 1.12089C204.58 0.370771 205.994 0.00398636 207.91 0.00398636H219.202C221.051 0.00398636 222.213 0.3701 222.724 1.07862C223.247 1.80369 223.275 3.07246 222.768 4.89967C222.726 5.05399 222.702 5.20764 222.658 5.36106C221.183 5.72203 219.73 6.08144 218.256 6.43995C218.498 5.59768 218.718 4.75229 218.96 3.90734L218.96 3.90712Z" fill="#0243A6"/>
<path fillRule="evenodd" clipRule="evenodd" d="M171.599 22.2931L178.192 0H194.712C196.297 0 197.354 0.338605 197.882 1.0232C198.41 1.70689 198.445 2.80568 198.036 4.32068C197.565 6.06492 197.066 7.81565 196.605 9.56146C196.208 11.0642 195.528 12.1627 194.646 12.8431C193.746 13.5375 192.489 13.8795 190.926 13.8795H188.328C189.473 15.2817 190.612 16.6907 191.74 18.0863C192.878 19.4944 194.051 20.8909 195.218 22.2931H188.57C187.602 20.8909 186.633 19.4886 185.686 18.0863C184.74 16.684 183.794 15.2817 182.847 13.8795H178.466C178.093 15.2817 177.686 16.6807 177.3 18.0863C176.915 19.4852 176.552 20.8909 176.155 22.2931H171.599H171.599ZM191.631 3.85929H181.219C180.932 4.89323 180.658 5.92447 180.36 6.96265C180.065 7.99323 179.809 9.03119 179.524 10.0651H189.936C190.728 10.0651 191.303 9.93987 191.674 9.67507C192.03 9.4228 192.301 8.95828 192.489 8.2927C192.74 7.40235 192.981 6.50797 193.237 5.60846C193.421 4.96368 193.369 4.5081 193.149 4.24934C192.928 3.98879 192.423 3.85929 191.631 3.85929Z" fill="#0243A6"/>
<path fillRule="evenodd" clipRule="evenodd" d="M142.33 22.2971C145.236 18.5831 148.136 14.8607 151.025 11.1526C153.924 7.43287 156.836 3.72051 159.764 0.00390625H164.21C165.069 3.72051 165.95 7.43935 166.808 11.1526C167.666 14.8665 168.569 18.5831 169.449 22.2971H164.255C163.88 20.6765 163.528 19.0562 163.198 17.4322H150.585C149.374 19.0562 148.142 20.6765 146.93 22.2971H142.33ZM153.71 13.4021H162.406C162.097 11.8911 161.789 10.3783 161.503 8.86736C161.217 7.35638 160.908 5.84451 160.622 4.33108C159.456 5.84451 158.289 7.35638 157.145 8.86736C156 10.3792 154.855 11.8911 153.71 13.4021H153.71Z" fill="#0243A6"/>
<path fillRule="evenodd" clipRule="evenodd" d="M142.04 3.99176H129.581C128.92 6.3441 128.26 8.69824 127.6 11.0479C126.94 13.3971 126.279 15.7519 125.619 18.1016H138.1C138.54 16.5076 138.981 14.9112 139.443 13.3146C140.873 13.674 142.305 14.0307 143.757 14.3874C143.515 15.2677 143.254 16.1498 143.009 17.0285C142.44 19.0673 141.712 20.4588 140.829 21.1888C139.929 21.934 138.54 22.2966 136.625 22.2966H124.738C122.823 22.2966 121.599 21.9414 121.128 21.1888C120.675 20.4653 120.73 19.0729 121.304 17.0285C121.853 15.0785 122.383 13.1137 122.933 11.1564C123.484 9.19899 124.055 7.23892 124.606 5.27998C125.177 3.25193 125.904 1.86709 126.786 1.12032C127.665 0.376018 129.074 0.00341797 130.99 0.00341797H142.855C144.747 0.00341797 145.952 0.382727 146.42 1.12032C146.898 1.8738 146.86 3.25193 146.288 5.27998C146.09 5.98447 145.892 6.68718 145.694 7.38922C144.087 7.66296 142.48 7.93783 140.873 8.20979C141.248 6.80504 141.644 5.39851 142.04 3.99131L142.04 3.99176Z" fill="#0243A6"/>
<path fillRule="evenodd" clipRule="evenodd" d="M95.3466 22.2971L101.951 0.00390625H118.635C120.221 0.00390625 121.267 0.330882 121.805 1.0271C122.324 1.69917 122.333 2.81361 121.915 4.32459C121.431 6.07219 120.925 7.82045 120.441 9.56537C120.023 11.0681 119.367 12.1724 118.481 12.847C117.562 13.5472 116.324 13.8834 114.739 13.8834H112.142C113.286 15.2856 114.409 16.6888 115.531 18.0902C116.654 19.4925 117.821 20.8948 118.966 22.2971H112.296C111.349 20.8948 110.381 19.4925 109.456 18.0902C108.532 16.6879 107.607 15.2856 106.661 13.8834H102.392L99.903 22.2971H95.3468H95.3466ZM115.51 3.8632H105.336L103.507 10.069H113.748C114.563 10.069 115.139 9.94378 115.509 9.67898C115.865 9.4267 116.159 8.95547 116.346 8.2966C116.6 7.39955 116.86 6.51188 117.117 5.61236C117.3 4.96758 117.264 4.51782 117.028 4.25324C116.802 3.9994 116.324 3.8632 115.509 3.8632H115.51Z" fill="#0243A6"/>
<path fillRule="evenodd" clipRule="evenodd" d="M61.4983 3.98901C59.748 10.1309 57.9148 16.2045 56.0692 22.299H51.0709C52.9166 16.2036 54.7426 10.1282 56.5 3.98901H46.9492C47.3524 2.66009 47.7368 1.33138 48.1393 0H72.7819C72.3793 1.33138 71.9857 2.66009 71.5837 3.98901H61.4983Z" fill="#0243A6"/>
<path fillRule="evenodd" clipRule="evenodd" d="M12.8613 22.2977L19.469 0.000976562H23.2364C25.0604 2.19274 26.8844 4.38204 28.7086 6.57202C30.5326 8.76132 32.3397 10.9663 34.18 13.1397C34.5658 13.5953 34.898 13.9838 35.1752 14.3796C35.4427 14.7623 35.6724 15.1646 35.8859 15.569L40.4995 0.00343671H44.6489L38.3564 22.2975H34.6307C32.7355 20.0028 30.7934 17.7091 28.8982 15.4144C27.003 13.1207 25.0914 10.8377 23.2128 8.52716C22.9361 8.1861 22.7153 7.85577 22.5262 7.57531C22.3369 7.29485 22.1471 7.00679 22.0049 6.71225C21.8391 7.39684 21.7314 8.05325 21.5553 8.66337C21.3771 9.27751 21.1898 9.79704 21.0581 10.2551C19.8925 14.2942 18.5958 18.2868 17.371 22.2975H12.8622L12.8613 22.2977Z" fill="#0243A6"/>
<path fillRule="evenodd" clipRule="evenodd" d="M2.61225 22.2967L9.22441 0.0033493H14.2026L7.58639 22.2967H2.61225Z" fill="#0243A6"/>
<path fillRule="evenodd" clipRule="evenodd" d="M71.4719 18.9842C71.1587 20.0569 70.8441 21.1313 70.5302 22.2041L91.4386 22.2035L91.7111 21.2728L92.3779 18.9949L92.4064 18.8976H75.4788L75.6878 18.1903C75.9709 17.2307 76.255 16.2698 76.5384 15.3096C76.823 14.3459 77.1082 13.3812 77.3926 12.4173L77.4918 12.0856L87.3872 12.0858C87.6644 11.1106 87.9498 10.1382 88.2332 9.16517H78.3495L78.5513 8.46208C79.0398 6.75752 79.5207 5.1554 80.0009 3.55426C80.1049 3.21005 80.0862 3.27297 80.0923 3.252L80.2015 2.88681H97.111L97.9588 0H77.0607C76.5282 1.81781 75.9928 3.63537 75.4559 5.45293C74.6561 8.16273 74.1953 9.71768 73.7341 11.276C72.9302 13.9908 72.2 16.4901 71.4719 18.9842Z" fill="#E23F35"/>
</svg>
