<svg width="30" height="24" viewBox="0 0 30 24" fill="none" xmlns="http://www.w3.org/2000/svg">
<path d="M5.98129 23.1709V21.6857C5.98129 21.1166 5.63365 20.7453 5.0409 20.7453C4.74058 20.7453 4.42448 20.8478 4.19516 21.1639C4.02106 20.8952 3.77652 20.7453 3.40521 20.7453C3.16011 20.7453 2.90768 20.8163 2.70991 21.0929V20.7926H2.19604V23.1709H2.7178V21.8592C2.7178 21.4406 2.93923 21.2428 3.28688 21.2428C3.63453 21.2428 3.80864 21.4642 3.80864 21.8592V23.1709H4.33039V21.8592C4.33039 21.4406 4.57549 21.2428 4.89947 21.2428C5.24712 21.2428 5.42123 21.4642 5.42123 21.8592V23.1709H5.98129ZM13.6853 20.7926H12.8396V20.0737H12.3178V20.7926H11.844V21.2665H12.3178V22.3567C12.3178 22.9022 12.5393 23.2262 13.1315 23.2262C13.3529 23.2262 13.6053 23.1552 13.7715 23.052L13.6217 22.6097C13.4718 22.7123 13.2977 22.7359 13.1794 22.7359C12.9343 22.7359 12.8317 22.5861 12.8317 22.341V21.2744H13.6774V20.7926H13.6853ZM18.0864 20.7453C17.7861 20.7453 17.5889 20.8952 17.47 21.0929V20.7926H16.9483V23.1709H17.47V21.8356C17.47 21.4406 17.6441 21.2191 17.9675 21.2191C18.0701 21.2191 18.189 21.2428 18.2915 21.2665L18.4414 20.7689C18.3394 20.7453 18.189 20.7453 18.0864 20.7453ZM11.4253 20.9904C11.1802 20.8163 10.8326 20.7453 10.4613 20.7453C9.86853 20.7453 9.47355 21.0456 9.47355 21.5116C9.47355 21.9066 9.77387 22.128 10.2872 22.2069L10.5323 22.2305C10.801 22.2779 10.9509 22.3567 10.9509 22.4756C10.9509 22.6497 10.7531 22.776 10.4055 22.776C10.0578 22.776 9.78908 22.6497 9.61554 22.5309L9.37044 22.9258C9.6392 23.1236 10.0105 23.2262 10.3818 23.2262C11.0771 23.2262 11.4721 22.9022 11.4721 22.4599C11.4721 22.0412 11.1481 21.8198 10.6585 21.7409L10.4134 21.7172C10.1919 21.6936 10.0184 21.6462 10.0184 21.4958C10.0184 21.3217 10.1925 21.227 10.4607 21.227C10.761 21.227 11.0535 21.3532 11.2033 21.4248L11.4253 20.9904ZM25.245 20.7453C24.9447 20.7453 24.7475 20.8952 24.6286 21.0929V20.7926H24.1069V23.1709H24.6286V21.8356C24.6286 21.4406 24.8027 21.2191 25.1262 21.2191C25.2287 21.2191 25.3476 21.2428 25.4501 21.2665L25.6 20.7689C25.4901 20.7453 25.3397 20.7453 25.245 20.7453ZM18.6076 21.9781C18.6076 22.6971 19.1051 23.2188 19.872 23.2188C20.2196 23.2188 20.4647 23.1478 20.7177 22.9501L20.4726 22.5314C20.2749 22.6813 20.0777 22.7529 19.8562 22.7529C19.4376 22.7529 19.1373 22.4525 19.1373 21.9866C19.1373 21.5443 19.4376 21.2439 19.8562 21.2203C20.0777 21.2203 20.2749 21.2913 20.4726 21.4417L20.7177 21.0231C20.4726 20.8253 20.2202 20.7543 19.872 20.7543C19.1057 20.7453 18.6076 21.267 18.6076 21.9781ZM23.4121 21.9781V20.7926H22.8904V21.0929C22.7163 20.8715 22.4717 20.7453 22.1478 20.7453C21.4761 20.7453 20.9623 21.267 20.9623 21.986C20.9623 22.705 21.484 23.2267 22.1478 23.2267C22.4954 23.2267 22.7405 23.1005 22.8904 22.8791V23.1794H23.4121V21.9781ZM21.5077 21.9781C21.5077 21.5595 21.7765 21.2118 22.2266 21.2118C22.6453 21.2118 22.9456 21.5358 22.9456 21.9781C22.9456 22.3968 22.6453 22.7444 22.2266 22.7444C21.7765 22.7207 21.5077 22.4046 21.5077 21.9781ZM15.2889 20.7453C14.5936 20.7453 14.1034 21.2428 14.1034 21.986C14.1034 22.7286 14.6009 23.2267 15.3205 23.2267C15.6681 23.2267 16.0158 23.1242 16.2845 22.9027L16.0394 22.5314C15.8416 22.6813 15.5971 22.7765 15.3441 22.7765C15.0201 22.7765 14.704 22.6266 14.6252 22.2074H16.3792V22.0097C16.4034 21.2349 15.9605 20.7453 15.2889 20.7453ZM15.2889 21.1876C15.6129 21.1876 15.8343 21.3854 15.8817 21.7567H14.6409C14.6967 21.4406 14.9176 21.1876 15.2889 21.1876ZM28.1924 21.9781V19.8528H27.6707V21.0935C27.4966 20.8721 27.252 20.7458 26.9281 20.7458C26.2564 20.7458 25.7426 21.2676 25.7426 21.9866C25.7426 22.7055 26.2643 23.2273 26.9281 23.2273C27.2757 23.2273 27.5208 23.1011 27.6707 22.8796V23.1799H28.1924V21.9781ZM26.2801 21.9781C26.2801 21.5595 26.5489 21.2118 26.9991 21.2118C27.4177 21.2118 27.718 21.5358 27.718 21.9781C27.718 22.3968 27.4177 22.7444 26.9991 22.7444C26.5568 22.7207 26.2801 22.4046 26.2801 21.9781ZM8.90447 21.9781V20.7926H8.38271V21.0929C8.20861 20.8715 7.96407 20.7453 7.64009 20.7453C6.96846 20.7453 6.45459 21.267 6.45459 21.986C6.45459 22.705 6.97634 23.2267 7.64009 23.2267C7.98773 23.2267 8.23283 23.1005 8.38271 22.8791V23.1794H8.90447V21.9781ZM6.97691 21.9781C6.97691 21.5595 7.24567 21.2118 7.69587 21.2118C8.11451 21.2118 8.41483 21.5358 8.41483 21.9781C8.41483 22.3968 8.11451 22.7444 7.69587 22.7444C7.24511 22.7207 6.97691 22.4046 6.97691 21.9781Z" fill="current"/>
<path d="M11.7489 9.75402C11.7489 6.90973 13.0843 4.38097 15.1387 2.74528C13.6292 1.55978 11.7253 0.84082 9.63939 0.84082C4.71654 0.84082 0.726196 4.82328 0.726196 9.75402C0.726196 14.6769 4.70865 18.6672 9.63939 18.6672C11.7174 18.6672 13.6218 17.9483 15.1387 16.7628C13.0843 15.1507 11.7489 12.5989 11.7489 9.75402Z" fill="current"/>
<path opacity="0.8" d="M29.5989 9.68614C29.5989 14.609 25.6165 18.5993 20.6857 18.5993C18.6077 18.5993 16.7033 17.8804 15.1865 16.6949C17.2645 15.0592 18.5762 12.5389 18.5762 9.68614C18.5762 6.84186 17.2408 4.3131 15.1865 2.67741C16.6959 1.49191 18.5998 0.772949 20.6857 0.772949C25.6165 0.773513 29.5989 4.77963 29.5989 9.68614Z" fill="current"/>
<path opacity="0.5" fill-rule="evenodd" clip-rule="evenodd" d="M15.1873 2.67749H11.2839V16.6871H15.197C17.2693 15.0512 18.5769 12.5343 18.5769 9.68609C18.5769 6.84188 17.2416 4.31319 15.1873 2.67749Z" fill="current"/>
</svg>
