<svg width="39" height="12" viewBox="0 0 39 12" fill="none" xmlns="http://www.w3.org/2000/svg">
<path d="M27.682 5.48999V11.3179H30.9197V7.86432H34.5891C36.1325 7.85353 37.4437 6.86602 37.9402 5.48999H27.682Z" fill="#9FB1C9"/>
<path d="M27.2506 0.6875C27.4395 3.06722 29.6951 4.9505 32.4472 4.9505C32.4579 4.9505 38.0754 4.9505 38.0754 4.9505C38.1186 4.73465 38.1401 4.50801 38.1401 4.27597C38.1401 2.30096 36.5483 0.703689 34.5787 0.6875H27.2506Z" fill="#9FB1C9"/>
<path d="M22.4587 4.89114C22.4964 4.82639 22.5558 4.78861 22.6314 4.78861C22.7393 4.78861 22.8202 4.87495 22.8256 4.97748V11.2641H26.0633V0.6875H22.8256C22.4155 0.703689 21.9514 1.00048 21.7788 1.37282L19.2048 6.89853C19.1994 6.92011 19.1886 6.9417 19.1778 6.96328C19.14 7.01724 19.0753 7.05502 18.9997 7.05502C18.881 7.05502 18.7839 6.95789 18.7839 6.83917V0.6875H15.5461V11.2641H18.7839C19.1886 11.2425 19.6419 10.9457 19.8145 10.5787L22.4587 4.90733C22.4533 4.90193 22.4587 4.89654 22.4587 4.89114Z" fill="#9FB1C9"/>
<path d="M10.3715 5.07439L8.47745 11.2638H6.14629L4.25762 5.069C4.24143 4.97186 4.15509 4.89632 4.04717 4.89632C3.92845 4.89632 3.83672 4.99345 3.83672 5.10677V11.2584H0.598999V0.681885H3.37804H4.20366C4.79724 0.681885 5.4232 1.14596 5.59588 1.71256L7.17157 6.86593C7.25251 7.12495 7.37663 7.11955 7.45757 6.86593L9.03326 1.71256C9.20594 1.14056 9.8319 0.681885 10.4255 0.681885H11.2511H14.0301V11.2584H10.7924V5.10677C10.7924 5.10677 10.7924 5.10677 10.7924 5.10137C10.7924 4.98266 10.6953 4.89092 10.582 4.89092C10.474 4.89632 10.3877 4.97186 10.3715 5.07439Z" fill="#9FB1C9"/>
</svg>
