<svg width="60" height="68" viewBox="0 0 60 68" fill="none" xmlns="http://www.w3.org/2000/svg">
<g clip-path="url(#clip0_1_3)">
<g filter="url(#filter0_f_1_3)">
<path d="M30.51 56.523C30.5041 56.6516 30.4488 56.7729 30.3557 56.8618C30.2625 56.9506 30.1387 57.0001 30.01 57C29.72 57 29.5 56.79 29.49 56.523C29.345 53.355 27.734 51.306 24.658 50.376C14.53 47.968 7 38.863 7 28C7 15.297 17.297 5 30 5C42.703 5 53 15.297 53 28C53 38.863 45.47 47.968 35.342 50.376C32.266 51.306 30.655 53.356 30.512 56.523H30.51Z" fill="#FF0000"/>
</g>
<path d="M30.51 56.523C30.5041 56.6516 30.4488 56.7729 30.3557 56.8618C30.2625 56.9506 30.1387 57.0001 30.01 57C29.72 57 29.5 56.79 29.49 56.523C29.345 53.355 27.734 51.306 24.658 50.376C14.53 47.968 7 38.863 7 28C7 15.297 17.297 5 30 5C42.703 5 53 15.297 53 28C53 38.863 45.47 47.968 35.342 50.376C32.266 51.306 30.655 53.356 30.512 56.523H30.51Z" fill="#FF0000"/>
<path d="M30 68C27.79 68 26 66.21 26 64C26 61.79 27.79 60 30 60C32.21 60 34 61.79 34 64C34 66.21 32.21 68 30 68Z" fill="white"/>
<path fill-rule="evenodd" clip-rule="evenodd" d="M30 66C30.2663 66.006 30.5312 65.9588 30.779 65.861C31.0268 65.7633 31.2526 65.617 31.4432 65.4308C31.6337 65.2446 31.7851 65.0222 31.8885 64.7767C31.9919 64.5311 32.0451 64.2674 32.0452 64.001C32.0453 63.7346 31.9921 63.4709 31.8889 63.2253C31.7856 62.9797 31.6343 62.7572 31.4439 62.5709C31.2535 62.3846 31.0277 62.2382 30.78 62.1404C30.5322 62.0425 30.2673 61.9951 30.001 62.001C29.4784 62.0126 28.9812 62.2282 28.6156 62.6018C28.2501 62.9755 28.0453 63.4773 28.0452 64C28.0451 64.5227 28.2496 65.0247 28.6149 65.3985C28.9803 65.7723 29.4774 65.9882 30 66Z" fill="#FF0000"/>
<path fill-rule="evenodd" clip-rule="evenodd" d="M28 33.2V38H39.4C39.4788 38 39.5568 37.9845 39.6296 37.9543C39.7024 37.9242 39.7685 37.88 39.8243 37.8243C39.88 37.7685 39.9242 37.7024 39.9543 37.6296C39.9845 37.5568 40 37.4788 40 37.4V23.6C40 23.5212 39.9845 23.4432 39.9543 23.3704C39.9242 23.2976 39.88 23.2315 39.8243 23.1757C39.7685 23.12 39.7024 23.0758 39.6296 23.0457C39.5568 23.0155 39.4788 23 39.4 23H34.446L34.288 25H38V26H34.21L34.051 28H38V29H33.972L33.599 33.715C33.5966 33.7549 33.5863 33.7939 33.5687 33.8299C33.5512 33.8658 33.5267 33.8978 33.4966 33.9242C33.4666 33.9506 33.4317 33.9708 33.3938 33.9837C33.3559 33.9965 33.3159 34.0017 33.276 33.999C33.1996 33.9915 33.1289 33.9555 33.0778 33.8983C33.0266 33.8411 32.9989 33.7667 33 33.69V17.4C33 17.2939 32.9579 17.1922 32.8828 17.1172C32.8078 17.0421 32.7061 17 32.6 17H32V16.4C32 16.2939 31.9579 16.1922 31.8828 16.1172C31.8078 16.0421 31.7061 16 31.6 16H21.4C21.2939 16 21.1922 16.0421 21.1172 16.1172C21.0421 16.1922 21 16.2939 21 16.4V17H20.4C20.2939 17 20.1922 17.0421 20.1172 17.1172C20.0421 17.1922 20 17.2939 20 17.4V37.4C20 37.5591 20.0632 37.7117 20.1757 37.8243C20.2883 37.9368 20.4409 38 20.6 38H25V33.2C25 33.09 25.09 33 25.2 33H27.8C27.91 33 28 33.09 28 33.2ZM23.5 30V24H25.5V30H23.5ZM27.5 24V30H29.5V24H27.5ZM23.5 22V19H25.5V22H23.5ZM27.5 19V22H29.5V19H27.5ZM35 32V31H38V32H35Z" fill="white"/>
<path d="M34.526 22L34.605 21H37.6C37.82 21 38 21.18 38 21.4V22H34.526Z" fill="white"/>
</g>
<defs>
<filter id="filter0_f_1_3" x="1" y="-1" width="58" height="64" filterUnits="userSpaceOnUse" color-interpolation-filters="sRGB">
<feFlood flood-opacity="0" result="BackgroundImageFix"/>
<feBlend mode="normal" in="SourceGraphic" in2="BackgroundImageFix" result="shape"/>
<feGaussianBlur stdDeviation="3" result="effect1_foregroundBlur_1_3"/>
</filter>
<clipPath id="clip0_1_3">
<rect width="60" height="68" fill="white"/>
</clipPath>
</defs>
</svg>
