<svg width="24" height="24" viewBox="0 0 24 24" fill="none" xmlns="http://www.w3.org/2000/svg">
<path d="M20.4333 16.2029V18.747C20.4342 18.9832 20.3859 19.2169 20.2912 19.4333C20.1966 19.6497 20.0578 19.844 19.8838 20.0037C19.7098 20.1633 19.5043 20.2849 19.2806 20.3605C19.0568 20.4362 18.8198 20.4643 18.5845 20.4431C15.975 20.1595 13.4683 19.2678 11.266 17.8396C9.21697 16.5376 7.47977 14.8004 6.17774 12.7514C4.74454 10.539 3.85263 8.02014 3.57427 5.39885C3.55307 5.16434 3.58094 4.92799 3.6561 4.70484C3.73126 4.48169 3.85206 4.27664 4.01081 4.10273C4.16956 3.92883 4.36278 3.78988 4.57817 3.69474C4.79356 3.5996 5.0264 3.55035 5.26186 3.55013H7.80598C8.21754 3.54608 8.61653 3.69182 8.92858 3.96019C9.24063 4.22855 9.44445 4.60123 9.50206 5.00876C9.60944 5.82293 9.80858 6.62234 10.0957 7.39175C10.2098 7.69528 10.2345 8.02516 10.1668 8.3423C10.0992 8.65943 9.94207 8.95053 9.71407 9.18111L8.63706 10.2581C9.84429 12.3812 11.6022 14.1391 13.7253 15.3463L14.8023 14.2693C15.0329 14.0413 15.324 13.8842 15.6411 13.8166C15.9582 13.7489 16.2881 13.7736 16.5917 13.8877C17.3611 14.1748 18.1605 14.374 18.9746 14.4813C19.3866 14.5395 19.7628 14.747 20.0318 15.0644C20.3007 15.3818 20.4436 15.787 20.4333 16.2029Z" fill="#0243A6"/>
</svg>
