<svg width="39" height="36" viewBox="0 0 39 36" fill="none" xmlns="http://www.w3.org/2000/svg">
<path d="M9.4847 16H17.5C19.433 16 21 17.567 21 19.5C21 21.433 19.433 23 17.5 23H7C3.41015 23 0.5 25.9101 0.5 29.5C0.5 33.0899 3.41015 36 7 36H30.5153L30.4386 35.8934C29.8633 35.0932 29.0927 33.9905 28.3188 32.7895C28.1527 32.5318 27.9854 32.2679 27.819 32H7C5.61929 32 4.5 30.8807 4.5 29.5C4.5 28.1193 5.61929 27 7 27H17.5C21.6421 27 25 23.6421 25 19.5C25 15.3579 21.6421 12 17.5 12H12.181C12.0146 12.2679 11.8472 12.5318 11.6812 12.7895C10.9073 13.9905 10.1367 15.0932 9.56143 15.8934C9.53546 15.9296 9.50988 15.9651 9.4847 16Z" fill="#FFFFFF"/>
<path d="M8 14.639C8.07512 14.5342 8.1533 14.4246 8.23415 14.3106C8.69799 13.6565 9.24928 12.8584 9.80947 12H8V14.639Z" fill="#FFFFFF"/>
<path fill-rule="evenodd" clip-rule="evenodd" d="M7 16C7 16 13 8.13611 13 5.24138C13 2.34665 10.3137 0 7 0C3.68629 0 1 2.34665 1 5.24138C1 8.13611 7 16 7 16ZM7 8C8.10457 8 9 7.10457 9 6C9 4.89543 8.10457 4 7 4C5.89543 4 5 4.89543 5 6C5 7.10457 5.89543 8 7 8Z" fill="#FFFFFF"/>
<path fill-rule="evenodd" clip-rule="evenodd" d="M33 36C33 36 39 28.1361 39 25.2414C39 22.3466 36.3137 20 33 20C29.6863 20 27 22.3466 27 25.2414C27 28.1361 33 36 33 36ZM33 28C34.1046 28 35 27.1046 35 26C35 24.8954 34.1046 24 33 24C31.8954 24 31 24.8954 31 26C31 27.1046 31.8954 28 33 28Z" fill="#FFFFFF"/>
</svg>
