<svg width="40" height="36" viewBox="0 0 40 36" fill="none" xmlns="http://www.w3.org/2000/svg">
<path d="M36.2295 10.0043C36.2108 9.91804 36.1861 9.832 36.1553 9.7467L33.4368 2.22277C33.0614 1.18393 31.915 0.646065 30.8762 1.02142L6.02671 10H36C36.0769 10 36.1534 10.0014 36.2295 10.0043Z" fill="#005EE4"/>
<path fill-rule="evenodd" clip-rule="evenodd" d="M4 36C1.79086 36 0 34.2091 0 32V28C2.20914 28 4 26.2091 4 24C4 21.7909 2.20914 20 0 20V16C0 13.7909 1.79086 12 4 12H27.5V36H4ZM15.9231 20H10V18H15.9231V20ZM10 25L21 25V23L10 23V25ZM21 30H10V28L21 28V30Z" fill="#005EE4"/>
<path d="M29.5 36L36 36C38.2091 36 40 34.2091 40 32V28C37.7909 28 36 26.2091 36 24C36 21.7909 37.7909 20 40 20V16C40 13.7909 38.2091 12 36 12H29.5V36Z" fill="#005EE4"/>
</svg>
