<svg width="37" height="12" viewBox="0 0 37 12" fill="none" xmlns="http://www.w3.org/2000/svg">
<mask id="mask0_3302_430" style="mask-type:luminance" maskUnits="userSpaceOnUse" x="0" y="0" width="37" height="12">
<path d="M18.9998 3.86841C18.9797 5.50575 20.4669 6.42426 21.5924 6.96338C22.7481 7.52248 23.1299 7.88189 23.1299 8.38108C23.1199 9.14983 22.2054 9.4793 21.3512 9.49926C19.864 9.51923 18.9998 9.09991 18.3064 8.78043L17.7738 11.2764C18.4672 11.5959 19.7434 11.8654 21.0699 11.8854C24.1851 11.8854 26.215 10.3579 26.225 7.99171C26.2351 4.98659 22.0446 4.81687 22.0748 3.47904C22.0848 3.0697 22.4767 2.6404 23.3309 2.53058C23.753 2.47068 24.9287 2.43074 26.2552 3.03975L26.7777 0.623674C26.0642 0.364096 25.1498 0.114502 24.0042 0.114502C21.0699 0.114502 19.0098 1.66199 18.9998 3.86841ZM31.7821 0.314178C31.2094 0.314178 30.737 0.643642 30.526 1.15282L26.0843 11.6957H29.1995L29.8226 9.99846H33.6211L33.9829 11.6957H36.7263L34.3346 0.314178H31.7821ZM32.2143 3.38918L33.1086 7.66225H30.6466L32.2143 3.38918ZM15.2213 0.314178L12.7694 11.6957H15.7338L18.1858 0.314178H15.2213ZM10.8399 0.314178L7.75488 8.0616L6.5088 1.4723C6.35806 0.733496 5.78526 0.314178 5.14213 0.314178H0.0975037L0.0271606 0.643642C1.06221 0.863285 2.23795 1.2227 2.95143 1.61207C3.38354 1.85168 3.51418 2.05136 3.65487 2.61045L6.01639 11.6957H9.15169L13.9551 0.314178H10.8399Z" fill="white"/>
</mask>
<g mask="url(#mask0_3302_430)">
<path d="M-3.8111 1.512L32.3253 -11.7065L40.5454 10.4774L4.40902 23.696" fill="current"/>
</g>
</svg>
