<svg width="40" height="40" viewBox="0 0 40 40" fill="none" xmlns="http://www.w3.org/2000/svg">
<path fill-rule="evenodd" clip-rule="evenodd" d="M0 36C0 38.2091 1.79086 40 4 40H34C36.2091 40 38 38.2091 38 36V33H31C29.3431 33 28 31.6569 28 30V26C28 24.3431 29.3431 23 31 23H38V20C38 17.7909 36.2091 16 34 16H4C1.79086 16 0 17.7909 0 20V36ZM38 25H31C30.4477 25 30 25.4477 30 26V30C30 30.5523 30.4477 31 31 31H38V25Z" fill="#005EE4"/>
<path d="M3.87888 14.0012C3.91916 14.0004 3.95953 14 4 14H15.0002V8.00001C15.0002 5.79087 16.7911 4.00001 19.0002 4.00001H21.4547L20.9491 2.69263C20.5507 1.66241 19.3926 1.15022 18.3624 1.54861L3.43934 7.31945C2.40912 7.71785 1.89692 8.87597 2.29531 9.90619L3.87888 14.0012Z" fill="#005EE4"/>
<path d="M17.0002 14V8.00001C17.0002 6.89544 17.8957 6.00001 19.0002 6.00001H30.0002C31.1048 6.00001 32.0002 6.89544 32.0002 8.00001V14H17.0002Z" fill="#005EE4"/>
<path d="M31 31C30.4477 31 30 30.5523 30 30V26C30 25.4477 30.4477 25 31 25H39C39.5523 25 40 25.4477 40 26V30C40 30.5523 39.5523 31 39 31H31Z" fill="#005EE4"/>
</svg>
